{
    "scenes": [
        { "nodes": [0] }
    ],
    "asset": {
        "version": "2.0"
    },
    "bufferViews": [{
            "buffer": 0,
            "byteOffset": 0,
            "byteLength": 1920,
            "target": 34963
        },
        {
            "buffer": 0,
            "byteOffset": 1920,
            "byteLength": 7488,
            "target": 34962,
            "byteStride": 32
        }
    ],
    "nodes": [{
        "name": "RootNode",
        "translation": [20.0,
            20.0, -2500.0
        ],
        "rotation": [-0.7071067690849304,
            0.0,
            0.0, -0.7071067690849304
        ],
        "scale": [1.0,
            1.0,
            1.0
        ],
        "mesh": 0
    }],
    "meshes": [{

        "primitives": [{
            "attributes": {
                "POSITION": 1,
                "NORMAL": 2,
                "TEXCOORD_0": 3
            },
            "indices": 0,
            "material": 0
        }]
    }],
    "accessors": [{
            "bufferView": 0,
            "type": "SCALAR",
            "componentType": 5123,
            "count": 960,
            "byteOffset": 0,
            "max": [233],
            "min": [0]
        },
        {
            "bufferView": 1,
            "type": "VEC3",
            "componentType": 5126,
            "count": 234,
            "byteOffset": 0,
            "min": [-20.0, -2500.0, -20.0],
            "max": [20.0,
                2500.0,
                20.0
            ]
        },
        {
            "bufferView": 1,
            "type": "VEC3",
            "componentType": 5126,
            "count": 234,
            "byteOffset": 12,
            "min": [-1.0, -1.0, -1.0],
            "max": [1.0,
                1.0,
                1.0
            ]
        },
        {
            "bufferView": 1,
            "type": "VEC2",
            "componentType": 5126,
            "count": 234,
            "byteOffset": 24,
            "min": [0.0,
                0.0
            ],
            "max": [1.0,
                1.0
            ]
        }
    ],
    "buffers": [{
        "uri": "data:application/octet-stream;base64,",
        "byteLength": 9408
    }],
    "materials": [{
        "pbrMetallicRoughness": {
            "baseColorFactor": [0.29,
                0.29,
                0.29,
                1.0
            ],
            "metallicFactor": 0.0,
            "roughnessFactor": 0.66
        },
        "emissiveFactor": [0.0,
            0.0,
            0.0
        ],
        "alphaMode": "OPAQUE",
        "doubleSided": false,
        "name": "材质"
    }]
}