{
  "accessors": [
    {
      "bufferView": 2,
      "byteOffset": 0,
      "componentType": 5126,
      "normalized": false,
      "count": 4168,
      "type": "VEC3",
      "max": [
        9.167099952697754,
        5.625999927520752,
        15.92590045928955
      ],
      "min": [
        -8.211299896240234,
        -10.947199821472168,
        -0.2939000129699707
      ]
    },
    {
      "bufferView": 2,
      "byteOffset": 50016,
      "componentType": 5126,
      "normalized": false,
      "count": 4168,
      "type": "VEC3",
      "max": [
        0.9999966621398926,
        0.999984622001648,
        1
      ],
      "min": [
        -0.9999966621398926,
        -0.99989914894104,
        -1
      ]
    },
    {
      "bufferView": 3,
      "byteOffset": 0,
      "componentType": 5126,
      "normalized": false,
      "count": 4168,
      "type": "VEC4",
      "max": [
        0.9999982118606567,
        0.9999324083328247,
        1,
        1
      ],
      "min": [
        -0.9999967813491821,
        -0.9999853372573853,
        -1,
        -1
      ]
    },
    {
      "bufferView": 1,
      "byteOffset": 0,
      "componentType": 5126,
      "normalized": false,
      "count": 4168,
      "type": "VEC2",
      "max": [
        0.9958000183105469,
        0.996399998664856
      ],
      "min": [
        0.006000000052154064,
        0.00430000014603138
      ]
    },
    {
      "bufferView": 0,
      "byteOffset": 0,
      "componentType": 5125,
      "normalized": false,
      "count": 9390,
      "type": "SCALAR",
      "max": [
        4167
      ],
      "min": [
        0
      ]
    },
    {
      "bufferView": 2,
      "byteOffset": 100032,
      "componentType": 5126,
      "normalized": false,
      "count": 3060,
      "type": "VEC3",
      "max": [
        9.167099952697754,
        6.017300128936768,
        15.92590045928955
      ],
      "min": [
        -8.211299896240234,
        -10.947199821472168,
        -0.2939000129699707
      ]
    },
    {
      "bufferView": 2,
      "byteOffset": 136752,
      "componentType": 5126,
      "normalized": false,
      "count": 3060,
      "type": "VEC3",
      "max": [
        0.9999107122421265,
        0.9999749660491943,
        0.9998325705528259
      ],
      "min": [
        -0.9999831914901733,
        -0.9999055862426758,
        -1
      ]
    },
    {
      "bufferView": 3,
      "byteOffset": 66688,
      "componentType": 5126,
      "normalized": false,
      "count": 3060,
      "type": "VEC4",
      "max": [
        0.9999967217445374,
        0.9997563362121582,
        1,
        1
      ],
      "min": [
        -0.9999967217445374,
        -0.9995015859603882,
        -1,
        -1
      ]
    },
    {
      "bufferView": 1,
      "byteOffset": 33344,
      "componentType": 5126,
      "normalized": false,
      "count": 3060,
      "type": "VEC2",
      "max": [
        0.9959999918937683,
        0.9933000206947327
      ],
      "min": [
        0.0035000001080334187,
        0.005400000140070915
      ]
    },
    {
      "bufferView": 0,
      "byteOffset": 37560,
      "componentType": 5125,
      "normalized": false,
      "count": 6822,
      "type": "SCALAR",
      "max": [
        3059
      ],
      "min": [
        0
      ]
    },
    {
      "bufferView": 2,
      "byteOffset": 173472,
      "componentType": 5126,
      "normalized": false,
      "count": 3940,
      "type": "VEC3",
      "max": [
        9.167099952697754,
        6.017300128936768,
        15.92590045928955
      ],
      "min": [
        -8.211299896240234,
        -10.947199821472168,
        -0.2939000129699707
      ]
    },
    {
      "bufferView": 2,
      "byteOffset": 220752,
      "componentType": 5126,
      "normalized": false,
      "count": 3940,
      "type": "VEC3",
      "max": [
        0.9999966621398926,
        0.9999326467514038,
        1
      ],
      "min": [
        -0.9999966621398926,
        -0.999737560749054,
        -1
      ]
    },
    {
      "bufferView": 3,
      "byteOffset": 115648,
      "componentType": 5126,
      "normalized": false,
      "count": 3940,
      "type": "VEC4",
      "max": [
        0.9999997615814209,
        0.9999833106994629,
        0.9996535778045654,
        1
      ],
      "min": [
        -0.9999995231628418,
        -0.9996657371520996,
        -0.999135434627533,
        -1
      ]
    },
    {
      "bufferView": 1,
      "byteOffset": 57824,
      "componentType": 5126,
      "normalized": false,
      "count": 3940,
      "type": "VEC2",
      "max": [
        0.9962000250816345,
        0.9962999820709229
      ],
      "min": [
        0.0035000001080334187,
        0.00419999985024333
      ]
    },
    {
      "bufferView": 0,
      "byteOffset": 64848,
      "componentType": 5125,
      "normalized": false,
      "count": 10338,
      "type": "SCALAR",
      "max": [
        3939
      ],
      "min": [
        0
      ]
    }
  ],
  "asset": {
    "generator": "pygltflib@v1.15.1",
    "version": "2.0"
  },
  "bufferViews": [
    {
      "buffer": 0,
      "byteOffset": 0,
      "byteLength": 106200,
      "target": 34963,
      "name": "floatBufferViews"
    },
    {
      "buffer": 0,
      "byteOffset": 106200,
      "byteLength": 89344,
      "byteStride": 8,
      "target": 34962,
      "name": "floatBufferViews"
    },
    {
      "buffer": 0,
      "byteOffset": 195544,
      "byteLength": 268032,
      "byteStride": 12,
      "target": 34962,
      "name": "floatBufferViews"
    },
    {
      "buffer": 0,
      "byteOffset": 463576,
      "byteLength": 178688,
      "byteStride": 16,
      "target": 34962,
      "name": "floatBufferViews"
    }
  ],
  "buffers": [
    {
      "uri": "data:application/octet-stream;base64,",
      "byteLength": 642264
    }
  ],
  "images": [
    {
      "uri": "textures/material_0_baseColor.jpeg"
    },
    {
      "uri": "textures/material_0_normal.jpeg"
    },
    {
      "uri": "textures/material_0_emissive.jpeg"
    },
    {
      "uri": "textures/material_0_metallicRoughness.png"
    }
  ],
  "materials": [
    {
      "pbrMetallicRoughness": {
        "baseColorFactor": [
          1,
          1,
          1,
          1
        ],
        "metallicFactor": 1,
        "roughnessFactor": 1,
        "baseColorTexture": {
          "index": 0,
          "texCoord": 0
        },
        "metallicRoughnessTexture": {
          "index": 3,
          "texCoord": 0
        }
      },
      "normalTexture": {
        "index": 1,
        "texCoord": 0,
        "scale": 1
      },
      "emissiveFactor": [
        1,
        1,
        1
      ],
      "emissiveTexture": {
        "index": 2,
        "texCoord": 0
      },
      "alphaMode": "OPAQUE",
      "alphaCutoff": 0.5,
      "doubleSided": true,
      "name": "material_0"
    }
  ],
  "meshes": [
    {
      "primitives": [
        {
          "attributes": {
            "POSITION": 0,
            "NORMAL": 1,
            "TANGENT": 2,
            "TEXCOORD_0": 3
          },
          "indices": 4,
          "mode": 4,
          "material": 0
        }
      ]
    },
    {
      "primitives": [
        {
          "attributes": {
            "POSITION": 5,
            "NORMAL": 6,
            "TANGENT": 7,
            "TEXCOORD_0": 8
          },
          "indices": 9,
          "mode": 4,
          "material": 0
        }
      ]
    },
    {
      "primitives": [
        {
          "attributes": {
            "POSITION": 10,
            "NORMAL": 11,
            "TANGENT": 12,
            "TEXCOORD_0": 13
          },
          "indices": 14,
          "mode": 4,
          "material": 0
        }
      ]
    }
  ],
  "nodes": [
    {
      "rotation": [
        -0.7071067811865475,
        0,
        0,
        0.7071067811865476
      ],
      "children": [
        1
      ],
      "name": "RootNode (model orientation matrix)"
    },
    {
      "children": [
        2
      ],
      "name": "RootNode (model correction matrix)"
    },
    {
      "children": [
        3,
        4,
        5
      ],
      "name": "d2f0cff60afc40f5afe79156ec7db657.obj.cleaner.materialmerger.gles"
    },
    {
      "mesh": 0
    },
    {
      "mesh": 1
    },
    {
      "mesh": 2
    }
  ],
  "samplers": [
    {
      "magFilter": 9729,
      "minFilter": 9987,
      "wrapS": 10497,
      "wrapT": 10497
    }
  ],
  "scene": 0,
  "scenes": [
    {
      "name": "OSG_Scene",
      "nodes": [
        0
      ]
    }
  ],
  "textures": [
    {
      "sampler": 0,
      "source": 0
    },
    {
      "sampler": 0,
      "source": 1
    },
    {
      "sampler": 0,
      "source": 2
    },
    {
      "sampler": 0,
      "source": 3
    }
  ]
}